<svg width="352" height="166" viewBox="0 0 352 166" fill="none" xmlns="http://www.w3.org/2000/svg">
<path d="M251 164.86L251.23 165.06H188.43L83.6802 73.13L83.2502 72.75L79.1202 69.1H87.3002L149.8 68.84L170.8 68.75V56.55C170.8 51.4065 168.758 46.4736 165.122 42.8357C161.486 39.1977 156.554 37.1527 151.41 37.15H42.5102L0.430176 0.380005H8.66018L46.5502 33.5H155.45C157.999 33.4987 160.522 33.9995 162.877 34.9739C165.232 35.9482 167.372 37.377 169.175 39.1786C170.977 40.9802 172.407 43.1193 173.382 45.4736C174.358 47.828 174.86 50.3515 174.86 52.9V72.76H170.81L145.75 72.87L91.8602 73.09L192.48 161H247.11L251.01 164.45L251.24 164.65H250.81L251 164.86Z" fill="#E452A0"/>
<path d="M246.25 160.65H192.05L91.43 72.71L145.32 72.49L170.38 72.38H174.43V52.52C174.43 49.9698 173.927 47.4447 172.95 45.089C171.974 42.7333 170.542 40.5934 168.737 38.7915C166.933 36.9897 164.79 35.5613 162.433 34.5881C160.076 33.6149 157.55 33.1161 155 33.12H46.12L8.22998 9.99429e-07H164.83C173.124 -0.00164072 181.292 2.01934 188.628 5.88778C195.965 9.75622 202.247 15.3554 206.93 22.2C208.993 25.1983 210.72 28.4143 212.08 31.79C214.191 36.9533 215.431 42.4309 215.75 48C215.75 48.5 215.8 49 215.81 49.5C215.82 50 215.81 50.5 215.81 51.02V109.94L189.51 110.32" fill="#030017"/>
<path d="M346.48 82.72C346.484 93.5854 344.347 104.345 340.191 114.384C336.034 124.423 329.941 133.545 322.258 141.228C314.575 148.911 305.453 155.004 295.414 159.161C285.375 163.317 274.615 165.454 263.75 165.45C261.68 165.495 259.615 165.236 257.62 164.68L253.49 161L239.61 148.78L222.43 133.63H253.43C266.815 133.442 279.589 127.994 288.988 118.462C298.387 108.93 303.656 96.0815 303.656 82.695C303.656 69.3085 298.387 56.46 288.988 46.9282C279.589 37.3964 266.815 31.9476 253.43 31.76H218.89C217.452 28.1987 215.607 24.8162 213.39 21.68C212.77 20.6 212.11 19.55 211.39 18.52C206.57 11.4936 200.069 5.78381 192.48 1.91C191.17 1.24 189.81 0.620001 188.48 0.0600006V6.04505e-07H263.8C274.664 -0.00131272 285.421 2.13733 295.459 6.29382C305.496 10.4503 314.616 16.5432 322.298 24.2246C329.981 31.906 336.075 41.0254 340.232 51.0621C344.39 61.0988 346.53 71.8562 346.53 82.72H346.48Z" fill="#E452A0"/>
<path d="M351.45 82.72C351.455 93.5849 349.319 104.344 345.164 114.383C341.009 124.422 334.917 133.544 327.234 141.227C319.552 148.91 310.431 155.004 300.393 159.16C290.354 163.317 279.595 165.454 268.73 165.45C266.66 165.497 264.594 165.237 262.6 164.68L258.46 161L244.59 148.78L230.76 136.28H261.76C289.9 136.28 309.34 111.77 309.34 82.69C309.34 49.83 285.02 28.62 256.89 28.62L221.6 29C212.87 11.83 199.8 1.34 193.41 2.41919e-06H268.73C279.594 -0.00262515 290.352 2.1352 300.389 6.29134C310.426 10.4475 319.546 16.5405 327.228 24.2223C334.91 31.9041 341.003 41.0241 345.159 51.0613C349.315 61.0986 351.453 71.8563 351.45 82.72Z" fill="#030017"/>
</svg>
